<svg width="36" height="37" viewBox="0 0 36 37" fill="none" xmlns="http://www.w3.org/2000/svg">
<g clip-path="url(#clip0_363_580)">
<path d="M4.50034 9.75047C4.50372 9.85107 4.48682 9.95133 4.45065 10.0453C4.41449 10.1392 4.35979 10.2249 4.28981 10.2973C4.21984 10.3696 4.13602 10.4272 4.04335 10.4665C3.95068 10.5058 3.85104 10.526 3.75038 10.526C3.64972 10.526 3.55009 10.5058 3.45741 10.4665C3.36474 10.4272 3.28092 10.3696 3.21095 10.2973C3.14097 10.2249 3.08628 10.1392 3.05011 10.0453C3.01394 9.95133 2.99704 9.85107 3.00042 9.75047V6.75063C3.00042 5.75602 3.39553 4.80214 4.09883 4.09883C4.80214 3.39553 5.75602 3.00042 6.75063 3.00042H9.75047C9.85107 2.99704 9.95133 3.01394 10.0453 3.05011C10.1392 3.08628 10.2249 3.14097 10.2973 3.21095C10.3696 3.28092 10.4272 3.36474 10.4665 3.45741C10.5058 3.55009 10.526 3.64972 10.526 3.75038C10.526 3.85104 10.5058 3.95068 10.4665 4.04335C10.4272 4.13602 10.3696 4.21984 10.2973 4.28981C10.2249 4.35979 10.1392 4.41449 10.0453 4.45065C9.95133 4.48682 9.85107 4.50372 9.75047 4.50034H6.75063C6.15382 4.50034 5.58145 4.73742 5.15943 5.15943C4.73742 5.58145 4.50034 6.15382 4.50034 6.75063V9.75047ZM26.2495 4.50034C26.1489 4.50372 26.0487 4.48682 25.9547 4.45065C25.8608 4.41449 25.7751 4.35979 25.7027 4.28981C25.6304 4.21984 25.5728 4.13602 25.5335 4.04335C25.4942 3.95068 25.474 3.85104 25.474 3.75038C25.474 3.64972 25.4942 3.55009 25.5335 3.45741C25.5728 3.36474 25.6304 3.28092 25.7027 3.21095C25.7751 3.14097 25.8608 3.08628 25.9547 3.05011C26.0487 3.01394 26.1489 2.99704 26.2495 3.00042H29.2494C30.244 3.00042 31.1979 3.39553 31.9012 4.09883C32.6045 4.80214 32.9996 5.75602 32.9996 6.75063V9.75047C33.003 9.85107 32.9861 9.95133 32.9499 10.0453C32.9137 10.1392 32.859 10.2249 32.7891 10.2973C32.7191 10.3696 32.6353 10.4272 32.5426 10.4665C32.4499 10.5058 32.3503 10.526 32.2496 10.526C32.149 10.526 32.0493 10.5058 31.9567 10.4665C31.864 10.4272 31.7802 10.3696 31.7102 10.2973C31.6402 10.2249 31.5855 10.1392 31.5493 10.0453C31.5132 9.95133 31.4963 9.85107 31.4997 9.75047V6.75063C31.4997 6.15382 31.2626 5.58145 30.8406 5.15943C30.4186 4.73742 29.8462 4.50034 29.2494 4.50034H26.2495ZM9.75047 31.4997C9.94501 31.5062 10.1294 31.5881 10.2647 31.728C10.4 31.8679 10.4757 32.055 10.4757 32.2496C10.4757 32.4443 10.4 32.6313 10.2647 32.7712C10.1294 32.9112 9.94501 32.993 9.75047 32.9996H6.75063C6.25815 32.9996 5.77049 32.9026 5.31549 32.7141C4.86049 32.5256 4.44707 32.2494 4.09883 31.9012C3.7506 31.5529 3.47436 31.1395 3.28589 30.6845C3.09742 30.2295 3.00042 29.7418 3.00042 29.2494V26.2495C2.99704 26.1489 3.01394 26.0487 3.05011 25.9547C3.08628 25.8608 3.14097 25.7751 3.21095 25.7027C3.28092 25.6304 3.36474 25.5728 3.45741 25.5335C3.55009 25.4942 3.64972 25.474 3.75038 25.474C3.85104 25.474 3.95068 25.4942 4.04335 25.5335C4.13602 25.5728 4.21984 25.6304 4.28981 25.7027C4.35979 25.7751 4.41449 25.8608 4.45065 25.9547C4.48682 26.0487 4.50372 26.1489 4.50034 26.2495V29.2494C4.50034 29.8462 4.73742 30.4186 5.15943 30.8406C5.58145 31.2626 6.15382 31.4997 6.75063 31.4997H9.75047ZM31.4997 26.2495C31.5062 26.055 31.5881 25.8706 31.728 25.7353C31.8679 25.6 32.055 25.5243 32.2496 25.5243C32.4443 25.5243 32.6313 25.6 32.7712 25.7353C32.9112 25.8706 32.993 26.055 32.9996 26.2495V29.2494C32.9996 30.244 32.6045 31.1979 31.9012 31.9012C31.1979 32.6045 30.244 32.9996 29.2494 32.9996H26.2495C26.1489 33.003 26.0487 32.9861 25.9547 32.9499C25.8608 32.9137 25.7751 32.859 25.7027 32.7891C25.6304 32.7191 25.5728 32.6353 25.5335 32.5426C25.4942 32.4499 25.474 32.3503 25.474 32.2496C25.474 32.149 25.4942 32.0493 25.5335 31.9567C25.5728 31.864 25.6304 31.7802 25.7027 31.7102C25.7751 31.6402 25.8608 31.5855 25.9547 31.5493C26.0487 31.5132 26.1489 31.4963 26.2495 31.4997H29.2494C29.8462 31.4997 30.4186 31.2626 30.8406 30.8406C31.2626 30.4186 31.4997 29.8462 31.4997 29.2494V26.2495Z" fill="#0F519E" stroke="#0F519E"/>
<path d="M3 18L33 18" stroke="#0F519E" stroke-width="3" stroke-linecap="round"/>
</g>
<defs>
<clipPath id="clip0_363_580">
<rect width="36" height="36" fill="white" transform="translate(0 0.0219727)"/>
</clipPath>
</defs>
</svg>
